HIERARCHY
ROOT Hips
{
	OFFSET -3.958830 18.904000 13.208200
	CHANNELS 6 Xposition Yposition Zposition Zrotation Yrotation Xrotation 
	JOINT LHipJoint
	{
		OFFSET 0.000000 0.000000 0.000000
		CHANNELS 3 Zrotation Yrotation Xrotation
		JOINT LeftUpLeg
		{
			OFFSET 1.800000 -1.400000 0.085000
			CHANNELS 3 Zrotation Yrotation Xrotation
			JOINT LeftLeg
			{
				OFFSET 2.215000 -6.000000 0.000000
				CHANNELS 3 Zrotation Yrotation Xrotation
				JOINT LeftFoot
				{
					OFFSET 2.500000 -6.900000 0.000000
					CHANNELS 3 Zrotation Yrotation Xrotation
					JOINT LeftToeBase
					{
						OFFSET 0.200000 -0.500000 1.950000
						CHANNELS 3 Zrotation Yrotation Xrotation
						End Site
						{
							OFFSET 0.000000 0.000000 0.000000
						}
					}
				}
			}
		}
	}
	JOINT RHipJoint
	{
		OFFSET 0.000000 0.000000 0.000000
		CHANNELS 3 Zrotation Yrotation Xrotation
		JOINT RightUpLeg
		{
			OFFSET -1.800000 -1.400000 0.085000
			CHANNELS 3 Zrotation Yrotation Xrotation
			JOINT RightLeg
			{
				OFFSET -2.215000 -6.000000 0.000000
				CHANNELS 3 Zrotation Yrotation Xrotation
				JOINT RightFoot
				{
					OFFSET -2.500000 -6.900000 0.000000
					CHANNELS 3 Zrotation Yrotation Xrotation
					JOINT RightToeBase
					{
						OFFSET -0.200000 -0.500000 1.950000
						CHANNELS 3 Zrotation Yrotation Xrotation
						End Site
						{
							OFFSET 0.000000 0.000000 0.000000
						}
					}
				}
			}
		}
	}
	JOINT LowerBack
	{
		OFFSET 0.000000 0.000000 0.000000
		CHANNELS 3 Zrotation Yrotation Xrotation
		JOINT Spine
		{
			OFFSET -0.087000 1.940000 -0.288900
			CHANNELS 3 Zrotation Yrotation Xrotation
			JOINT Spine1
			{
				OFFSET 0.000000 1.950000 0.060000
				CHANNELS 3 Zrotation Yrotation Xrotation
				JOINT Neck
				{
					OFFSET 0.000000 0.000000 0.000000
					CHANNELS 3 Zrotation Yrotation Xrotation
					JOINT Neck1
					{
						OFFSET 0.000000 1.600000 0.340000
						CHANNELS 3 Zrotation Yrotation Xrotation
						JOINT Head
						{
							OFFSET 0.000000 1.667000 -0.240000
							CHANNELS 3 Zrotation Yrotation Xrotation
							End Site
							{
								OFFSET 0.000000 0.000000 0.000000
							}
						}
					}
				}
				JOINT LeftShoulder
				{
					OFFSET 0.000000 0.000000 0.000000
					CHANNELS 3 Zrotation Yrotation Xrotation
					JOINT LeftArm
					{
						OFFSET 2.700000 1.550000 -0.730000
						CHANNELS 3 Zrotation Yrotation Xrotation
						JOINT LeftForeArm
						{
							OFFSET 5.450000 0.000000 0.000000
							CHANNELS 3 Zrotation Yrotation Xrotation
							JOINT LeftHand
							{
								OFFSET 3.450000 0.000000 0.000000
								CHANNELS 3 Zrotation Yrotation Xrotation
								JOINT LeftHandIndex1
								{
									OFFSET 0.750000 0.000000 0.000000
									CHANNELS 3 Zrotation Yrotation Xrotation
									End Site
									{
										OFFSET 0.000000 0.000000 0.000000
									}
								}
							}
						}
					}
				}
				JOINT RightShoulder
				{
					OFFSET 0.000000 0.000000 0.000000
					CHANNELS 3 Zrotation Yrotation Xrotation
					JOINT RightArm
					{
						OFFSET -2.700000 1.550000 -0.730000
						CHANNELS 3 Zrotation Yrotation Xrotation
						JOINT RightForeArm
						{
							OFFSET -5.450000 0.000000 0.000000
							CHANNELS 3 Zrotation Yrotation Xrotation
							JOINT RightHand
							{
								OFFSET -3.450000 0.000000 0.000000
								CHANNELS 3 Zrotation Yrotation Xrotation
								JOINT RightHandIndex1
								{
									OFFSET -0.750000 0.000000 0.000000
									CHANNELS 3 Zrotation Yrotation Xrotation
									End Site
									{
										OFFSET 0.000000 0.000000 0.000000
									}
								}
							}
						}
					}
				}
			}
		}
	}
}
MOTION
Frames: 7
Frame Time: 0.016667
-0.577240 16.530380 -3.894130 -5.804899 -14.998770 19.484739 -15.437739 13.376262 2.609758 -0.513912 0.299705 2.786220 -5.965618 5.945622 9.516785 -0.385352 5.137247 3.227373 0.649210 0.195010 0.357180 18.446296 -7.810653 4.743369 18.806102 11.196997 -46.818158 3.056766 -1.717807 7.937519 0.264837 -0.637833 4.457099 0.234750 0.547840 0.203540 -3.537315 -5.576797 -7.618432 11.028797 -14.695122 15.759957 -5.162954 -13.831375 -5.069697 -2.168122 -9.752067 -7.091494 -20.540336 17.479042 13.644915 0.513140 9.670740 -10.156210 -13.565041 4.884720 -0.224738 -33.869606 -6.343140 -3.370239 25.371128 -36.572301 -8.302680 -3.794927 2.869385 0.565450 0.312400 -0.268710 0.417420 19.871939 -5.068746 2.540696 51.179593 -11.124708 -11.875315 38.573845 50.547957 13.514437 1.600293 -1.888356 -0.339400 0.376930 -0.115010 -0.264030 
-0.595310 16.544210 -3.810360 -6.713888 -19.444483 19.511680 -15.436492 13.453209 2.674249 -1.028562 0.128363 1.333502 -7.824559 6.824785 13.358986 -0.290903 5.362481 3.123270 0.609390 0.119660 0.376460 18.397775 -7.934598 4.771299 19.837612 11.193076 -42.859462 4.309283 -1.729869 5.410044 0.236877 -0.622139 4.475728 0.148880 0.482360 0.203660 -3.446482 -5.502062 -7.826132 9.657403 -12.885782 17.787663 -4.243911 -11.848971 -6.800595 -1.425664 -9.956431 -7.229336 -21.179544 17.735346 15.849714 -0.295090 10.950070 -10.337010 -14.694018 5.692541 -0.768841 -30.695166 -4.375417 -2.859813 19.508598 -28.377211 -4.903622 -3.794495 2.877438 0.628290 0.255150 -0.224500 0.386830 19.532355 -4.823846 3.089690 49.936982 -12.932430 -13.113392 37.754486 50.542094 13.029669 1.641772 -1.860104 -0.329330 0.326210 -0.116950 -0.289650 
-0.630680 16.563550 -3.703210 -8.465144 -24.481377 19.852793 -15.453443 13.435091 2.744060 -0.380914 -0.356968 -0.083082 -11.076209 8.274727 16.913061 -0.126642 5.835205 2.918491 0.600510 0.101190 0.412460 18.349629 -8.008151 4.796310 21.139383 11.303596 -38.425370 6.072452 -1.840893 3.436388 0.176255 -0.717256 4.450110 0.094870 0.396260 0.200760 -3.345311 -5.354248 -8.041225 8.698225 -10.617584 19.091103 -3.355381 -9.299432 -7.850727 -0.685333 -10.015245 -7.392254 -21.486576 18.086904 18.196163 -1.228440 12.394070 -10.973850 -15.814751 6.402294 -1.152119 -28.258720 -2.159234 -2.577755 14.436427 -21.534041 -2.870744 -3.774608 2.874789 0.671190 0.194890 -0.166210 0.359610 19.079682 -4.280755 3.649589 48.645251 -14.443702 -14.236339 36.264232 50.755603 12.363598 1.684732 -1.841702 -0.298980 0.273090 -0.139310 -0.309050 
-0.643000 16.585370 -3.602500 -8.668723 -25.587776 19.435047 -15.488954 13.485324 2.855693 0.964562 -1.659932 -3.167252 -14.085346 10.322150 22.782662 0.057247 6.717830 2.594545 0.531190 -0.001640 0.426270 18.269747 -8.072489 4.675347 20.328506 10.595668 -35.999933 7.632086 -1.930773 1.912273 0.162844 -0.830659 4.434261 0.022250 0.376000 0.177850 -3.144345 -5.454382 -8.182979 7.400159 -9.735489 20.032816 -2.805062 -8.251120 -7.850055 0.484100 -9.326328 -7.757862 -19.798163 17.478311 20.129169 -2.792540 13.681530 -10.048060 -16.244835 5.962180 -1.009513 -26.608590 -0.370748 -2.517177 11.119541 -15.962467 -1.900520 -3.807149 2.826725 0.695220 0.189890 -0.172380 0.321880 17.274681 -3.576136 4.333870 49.441224 -16.250100 -16.452631 33.076416 51.319136 10.919057 1.683233 -1.806243 -0.328000 0.251800 -0.127470 -0.346040 
-0.652730 16.614050 -3.498060 -8.346039 -26.145990 18.127223 -15.535761 13.441330 3.101859 2.504771 -3.233219 -6.076129 -17.265011 12.932225 28.937575 0.366014 7.915568 2.148519 0.493280 -0.066300 0.444050 18.188006 -8.101515 4.508886 19.095000 9.770907 -33.687681 8.607892 -2.031210 1.191684 0.117237 -0.934497 4.393353 -0.052060 0.315120 0.186510 -2.935301 -5.530045 -8.374532 5.672466 -8.920318 21.670500 -2.010116 -7.364113 -8.009021 1.438952 -8.687654 -8.339583 -18.526862 16.892057 22.421330 -3.979870 14.581220 -10.060880 -16.231438 5.404805 -0.430588 -25.993361 2.165084 -2.827089 8.506608 -13.275111 -1.439133 -3.771005 2.833944 0.730970 0.148560 -0.135090 0.292190 15.517522 -2.702032 4.874340 50.543060 -17.298033 -18.527418 28.515832 51.371925 9.023509 1.707386 -1.762112 -0.309330 0.193390 -0.130510 -0.365520 
-0.655850 16.644070 -3.405620 -8.099692 -26.581090 16.583207 -15.606003 13.271552 3.421455 4.596274 -4.726846 -8.932152 -20.997765 15.980332 33.929408 0.713248 9.215544 1.687159 0.498450 -0.054980 0.470500 18.116016 -8.035857 4.342923 18.288668 9.243512 -31.796278 8.609196 -2.129856 1.619640 0.076750 -1.013213 4.369679 -0.074730 0.258680 0.193440 -2.739935 -5.577510 -8.561501 4.133553 -8.150985 23.019571 -0.931502 -6.581884 -7.245349 1.910871 -8.241108 -8.730970 -17.696434 16.555939 24.118573 -5.497220 15.462550 -10.503730 -16.885109 4.592335 0.168638 -25.008562 4.738486 -3.053709 5.752270 -11.099603 -1.110613 -3.731562 2.847692 0.740970 0.123740 -0.092230 0.286260 15.252494 -1.499507 5.295484 49.757550 -18.446719 -20.196790 25.183664 53.684380 8.090009 1.691783 -1.791156 -0.278810 0.154810 -0.158760 -0.370860 
-0.664860 16.659410 -3.313140 -7.639232 -26.761411 15.141021 -15.680590 12.995363 3.829689 6.982285 -6.171501 -12.260561 -25.008924 19.620101 38.662290 1.067998 10.653461 1.213245 0.488550 -0.066220 0.489740 18.059343 -7.950142 4.128806 17.271784 8.652650 -29.956133 8.673696 -2.222138 1.865722 0.050671 -1.101538 4.348369 -0.091390 0.234960 0.182840 -2.587040 -5.539649 -8.737978 2.925480 -7.354629 23.559758 -0.098753 -5.854767 -6.160902 2.121143 -7.827252 -9.020835 -16.956546 16.261045 25.635054 -6.486800 15.919740 -10.710330 -16.854184 4.035143 0.779407 -24.959040 7.006889 -3.367132 2.909217 -10.016243 -0.965528 -3.712901 2.828799 0.755250 0.114560 -0.078740 0.270120 14.729235 -0.599559 5.445228 49.069127 -18.986267 -21.506980 20.271853 54.878570 6.286490 1.662485 -1.771796 -0.280340 0.153750 -0.160980 -0.386160 
